<?xml version="1.0" encoding="UTF-8" standalone="no"?>
<svg width="48" height="48" viewBox="0 0 48 48" fill="none" xmlns="http://www.w3.org/2000/svg">
 
    <circle cx="24" cy="24" r="22" fill="#FF3A36"/>
    
    
    <path d="M34 18C34 15.7909 32.2091 14 30 14H18C15.7909 14 14 15.7909 14 18V30C14 32.2091 15.7909 34 18 34H30C32.2091 34 34 32.2091 34 30V18Z" fill="white"/>
    
    <!-- Scripted by zork -->
    <path d="M28 22H20C18.8954 22 18 22.8954 18 24V30C18 31.1046 18.8954 32 20 32H28C29.1046 32 30 31.1046 30 30V24C30 22.8954 29.1046 22 28 22Z" fill="#FF3A36"/>
    <path d="M21 22V20C21 18.3431 22.3431 17 24 17C25.6569 17 27 18.3431 27 20V22" stroke="#FF3A36" stroke-width="2"/>
</svg> 